<svg width="100" height="25" fill="none" xmlns="http://www.w3.org/2000/svg"><path d="M67.067 5.166c-1.73 0-3.063.601-4.3 1.855V5.46H59.37v15.375h3.654v-8.918c0-2.041 1.247-3.332 3.139-3.332.343 0 .645.041.86.082l2.535-3.25c-.988-.166-1.848-.25-2.493-.25zm31.51.293h-4.213l-3.89 5.014-3.89-5.015H82.37l5.944 7.748-5.944 7.628h4.3l3.782-4.864 3.783 4.864h4.342l-5.984-7.616 5.984-7.76zM21.842 2c-1.246 1.625-1.548 2.166-2.751 2.166H1.12V25h7.05c1.591 0 3.138-.75 4.127-2 1.29-1.666 1.462-2.166 2.709-2.166h18.012V0h-7.093c-1.59 0-3.138.75-4.084 2zm5.588 13.459h-7.523c-1.634 0-3.138.666-4.126 1.957-1.29 1.668-1.549 2.168-2.752 2.168H6.667v-10h7.523a5.25 5.25 0 004.127-2c1.29-1.625 1.634-2.125 2.794-2.125h6.32v10zm26.997-5.125c1.592-.875 2.709-2.418 2.709-4.459 0-3-2.364-5.875-5.803-5.875H41.015v20.834h10.318c3.74 0 6.319-2.584 6.319-5.834 0-1.916-.903-3.584-3.225-4.666zM44.67 3.25h6.362c1.59 0 2.536 1.459 2.536 2.75 0 1.584-1.418 2.666-2.75 2.666H44.67V3.25zm6.148 14.334H44.67v-5.668h6.362c1.634 0 2.967 1.375 2.967 2.793 0 1.582-1.676 2.875-3.181 2.875z" fill="#010E08"/><path d="M78.716 16.416c-.602.917-1.763 1.459-3.053 1.459-2.02 0-3.697-1.334-3.697-3.375h10.92c.172-.625.214-.917.214-1.459 0-4.666-2.966-7.875-7.436-7.875-4.386 0-7.48 3.042-7.48 8 0 4.834 2.965 7.959 7.565 7.959 3.225 0 6.062-1.542 6.879-4.709h-3.912zm-3.053-8c2.02 0 3.569 1.25 3.526 3.125h-7.18c0-1.833 1.635-3.125 3.654-3.125z" fill="#010E08"/></svg>