<svg width="100" height="35" fill="none" xmlns="http://www.w3.org/2000/svg"><path fill-rule="evenodd" clip-rule="evenodd" d="M7.01 0C3.14 0 0 2.472 0 5.52v18.126c0 3.049 3.139 5.52 7.01 5.52h23.016c3.872 0 7.011-2.471 7.011-5.52V5.52c0-3.05-3.139-5.521-7.01-5.521H7.01zm16.535 3.125h4.762c2.776 0 5.026 1.772 5.026 3.958v15c0 2.186-2.25 3.959-5.026 3.959h-4.762c-2.776 0-5.027-1.773-5.027-3.959v-15c0-2.186 2.25-3.958 5.027-3.958z" fill="#010E08"/><path d="M50.488 27.242v-9.57h12.264V13.83H50.488V7.116h13.428v-3.93h-19.47v24.056h6.042zm16.438 0h5.886V8.543h-5.886v18.699zm-.403-23.334c0 .717.329 1.304.985 1.762.657.447 1.44.67 2.35.67.925 0 1.708-.223 2.35-.67.656-.458.985-1.045.985-1.762 0-.728-.329-1.316-.985-1.762-.642-.459-1.425-.688-2.35-.688-.91 0-1.693.23-2.35.688-.656.446-.985 1.034-.985 1.762zm21.073 26.771c-.865 0-1.626-.1-2.283-.3-.656-.188-1.193-.458-1.611-.81-.418-.341-.694-.729-.828-1.164h-5.707c.12 1.046.56 1.998 1.32 2.855.762.858 1.888 1.54 3.38 2.045 1.492.517 3.372.775 5.64.775 1.342 0 2.663-.13 3.96-.388 1.314-.246 2.5-.652 3.559-1.216 1.06-.564 1.91-1.298 2.551-2.203.642-.893.963-1.98.963-3.26V8.543h-5.82v2.75h-.245c-.314-.564-.799-1.07-1.455-1.516-.641-.458-1.417-.817-2.328-1.075-.895-.27-1.887-.406-2.976-.406-1.805 0-3.387.335-4.744 1.005a7.384 7.384 0 00-3.178 2.96c-.761 1.293-1.142 2.885-1.142 4.777V18.2c0 1.915.38 3.525 1.142 4.829a7.385 7.385 0 003.178 2.96c1.357.67 2.939 1.005 4.744 1.005.82 0 1.589-.076 2.305-.229a8.617 8.617 0 001.947-.634 6.186 6.186 0 001.477-.934c.418-.364.739-.746.963-1.146h.246v2.661c0 1.258-.448 2.233-1.343 2.926-.895.693-2.134 1.04-3.715 1.04zm.134-18.682c1 0 1.865.206 2.596.617a4.225 4.225 0 011.701 1.78c.418.776.627 1.71.627 2.803v1.092c0 1.105-.202 2.044-.604 2.82a4.054 4.054 0 01-1.701 1.78c-.731.411-1.604.617-2.619.617-1.044 0-1.947-.2-2.708-.6a4.188 4.188 0 01-1.723-1.78c-.403-.787-.604-1.732-.604-2.837v-1.093c0-1.128.201-2.073.604-2.837a4.082 4.082 0 011.723-1.762c.761-.4 1.664-.6 2.708-.6z" fill="#010E08"/></svg>