<svg width="110" height="35" fill="none" xmlns="http://www.w3.org/2000/svg"><g clip-path="url(#clip0_247_1855)" fill-rule="evenodd" clip-rule="evenodd" fill="#010E08"><path d="M57.211 25.827a5.838 5.838 0 003.089-.681c.965-.51 1.806-1.284 2.45-2.25l-2.073-2.217a4.114 4.114 0 01-1.44 1.471 3.502 3.502 0 01-1.885.498c-2.597 0-4.362-2.275-4.362-5.498 0-3.208 1.765-5.454 4.362-5.454a3.446 3.446 0 011.877.458 4.04 4.04 0 011.448 1.438l2.072-2.144c-.64-.97-1.48-1.744-2.447-2.253a5.765 5.765 0 00-3.091-.664c-4.374 0-7.457 3.646-7.457 8.62 0 4.987 3.07 8.676 7.457 8.676zm11.051-.408v-11.23c.64-1.195 2.392-2.216 3.748-2.216.383 0 .69.03.96.102V8.517a5.68 5.68 0 00-2.627.803 6.557 6.557 0 00-2.081 1.997V8.925h-3.146V25.42h3.146zm8.416-18.506c.516 0 1.01-.234 1.375-.65.365-.415.57-.98.57-1.567 0-.588-.205-1.152-.57-1.568-.364-.415-.859-.649-1.375-.649-.515 0-1.01.234-1.374.65-.365.415-.57.979-.57 1.567s.205 1.152.57 1.567c.364.416.859.65 1.374.65zm1.56 18.52V8.91H75.08v16.494l3.16.03zm8.635.394c3.888 0 6.011-2.217 6.011-5.148 0-6.562-8.749-4.375-8.749-7.291 0-1.152 1.024-2.042 2.674-2.042 1.829 0 3.415.89 4.285 1.983l1.317-2.523c-1.553-1.53-3.55-2.346-5.602-2.29-3.659 0-5.692 2.29-5.692 4.988 0 6.344 8.749 4.025 8.749 7.277 0 1.298-.998 2.188-2.878 2.188-1.82-.054-3.56-.869-4.886-2.29l-1.433 2.552c1.692 1.755 3.918 2.687 6.204 2.596zm16.525 0c-1.829 0-3.44-.948-4.643-2.698v8.575h-3.134V8.925h3.134v2.26a6.036 6.036 0 012.043-1.964 5.198 5.198 0 012.6-.704c3.748 0 6.408 3.208 6.408 8.633 0 5.44-2.66 8.677-6.395 8.677h-.013zm-.921-3.179c2.482 0 4.093-2.275 4.093-5.498 0-3.208-1.611-5.454-4.093-5.454-1.471 0-2.993.948-3.71 2.187v6.52a4.97 4.97 0 001.624 1.618 4.28 4.28 0 002.086.627zM14.8 27.694l5.922 7.175 4.63-8.517 12.279-1.531L35.648.233.18 4.696l1.995 24.587 12.625-1.59z"/></g><defs><clipPath id="clip0_247_1855"><path fill="#fff" d="M0 0h110v35H0z"/></clipPath></defs></svg>