<svg width="100" height="21" fill="none" xmlns="http://www.w3.org/2000/svg"><g clip-path="url(#clip0_247_1856)"><path d="M20.142 6.084c-3.625 0-6.458 3.087-6.458 7.22 0 4.134 2.76 7.195 6.458 7.195 3.697 0 6.506-3.114 6.506-7.22 0-4.081-2.761-7.195-6.506-7.195zm.024 11.436c-2.064 0-3.577-1.799-3.577-4.214 0-2.444 1.488-4.242 3.553-4.242 2.089 0 3.6 1.826 3.6 4.242 0 2.415-1.511 4.214-3.576 4.214zm7.274-8.295h1.8v11.007h2.881V6.352H27.44v2.873zM6.434 9.063c1.513 0 2.713 1.047 3.169 2.604h3.049C12.099 8.34 9.65 6.084 6.458 6.084 2.833 6.084 0 9.17 0 13.306 0 17.44 2.761 20.5 6.458 20.5c3.121 0 5.618-2.255 6.17-5.611H9.603C9.17 16.446 7.97 17.52 6.457 17.52c-2.089 0-3.553-1.799-3.553-4.214.001-2.444 1.442-4.243 3.53-4.243zm75.742 2.9l-2.112-.349c-1.008-.16-1.729-.536-1.729-1.422 0-.967.937-1.45 2.209-1.45 1.392 0 2.281.671 2.473 1.772h2.785c-.313-2.792-2.233-4.43-5.186-4.43-3.049 0-5.065 1.746-5.065 4.215 0 2.362 1.32 3.732 3.985 4.161l2.112.349c1.033.16 1.61.618 1.61 1.476 0 1.101-1.009 1.557-2.401 1.557-1.706 0-2.666-.778-2.81-1.96h-2.832c.264 2.712 2.16 4.618 5.617 4.618 3.145 0 5.234-1.61 5.234-4.376 0-2.47-1.513-3.759-3.89-4.161zM30.681.634c-1.056 0-1.849.859-1.849 2.04 0 1.18.792 2.04 1.85 2.04 1.055 0 1.848-.86 1.848-2.04 0-1.181-.793-2.04-1.849-2.04zm42.277 10.47c0-3.006-1.632-5.02-5.09-5.02-3.264 0-5.089 1.853-5.45 4.699h2.858c.144-1.1.912-2.013 2.545-2.013 1.465 0 2.185.724 2.185 1.61 0 1.155-1.321 1.45-2.954 1.638-2.208.268-4.945 1.127-4.945 4.349 0 2.497 1.657 4.107 4.298 4.107 2.064 0 3.36-.967 4.01-2.497.095 1.369 1.008 2.255 2.28 2.255h1.68V17.36H72.96v-6.256h-.001zm-2.833 3.49c0 1.853-1.44 3.222-3.193 3.222-1.08 0-1.993-.51-1.993-1.583 0-1.37 1.465-1.745 2.81-1.906 1.296-.134 2.016-.456 2.376-1.074v1.341zm-15.292-8.51c-1.61 0-2.954.752-3.914 2.013V.5h-2.88v19.732h2.832v-1.826c.96 1.316 2.33 2.094 3.962 2.094 3.456 0 6.074-3.06 6.074-7.194 0-4.135-2.665-7.222-6.074-7.222zM54.4 17.52c-2.065 0-3.578-1.799-3.578-4.214 0-2.416 1.537-4.242 3.601-4.242 2.09 0 3.553 1.8 3.553 4.242 0 2.415-1.512 4.214-3.576 4.214zM41.148 6.084c-1.873 0-3.097.858-3.817 2.067v-1.8h-2.858v13.88h2.881v-7.543c0-2.121 1.2-3.625 2.977-3.625 1.657 0 2.688 1.316 2.688 3.222v7.947H45.9v-8.188c.001-3.49-1.607-5.96-4.752-5.96zm58.65 6.765c0-3.973-2.593-6.764-6.074-6.764-3.697 0-6.41 3.114-6.41 7.22 0 4.323 2.905 7.195 6.458 7.195 3.001 0 5.354-1.987 5.954-4.805h-3.002c-.432 1.235-1.488 1.933-2.905 1.933-1.849 0-3.241-1.289-3.553-3.544h9.531v-1.235h.001zm-9.364-1.074c.457-1.933 1.754-2.872 3.242-2.872 1.632 0 2.88 1.047 3.169 2.872h-6.41z" fill="#010E08"/></g><defs><clipPath id="clip0_247_1856"><path fill="#fff" transform="translate(0 .5)" d="M0 0h100v20H0z"/></clipPath></defs></svg>