<svg width="220" height="21" fill="none" xmlns="http://www.w3.org/2000/svg"><g filter="url(#filter0_d_16_1028)"><path d="M0 17.5V0h17.5v2.5H5v5h10V10H5v7.5H0zm27.5-10H30V10h-2.5v7.5h-5V5h5v2.5zm10-2.5v2.5H30V5h7.5zm5 12.5V15H40V7.5h2.5V5H55v2.5h2.5V15H55v2.5H42.5zM45 15h7.5V7.5H45V15zm15 2.5V5h15v2.5h2.5v10h-5v-10H65v10h-5zm27.5 0v-10h-5V5h5V0h5v5h5v2.5h-5v10h-5zm15 0V15H100v-2.5h5V15h7.5v-5h-10V7.5H100v-5h2.5V0H115v2.5h2.5V5h-5V2.5H105v5h10V10h2.5v5H115v2.5h-12.5zm20 0V15H120V7.5h2.5V5h15v2.5H125V15h12.5v2.5h-15zm17.5 0V0h5v5h10v2.5h2.5v10h-5v-10H145v10h-5zm22.5 0V15H160V7.5h2.5V5H175v2.5h2.5V15H175v2.5h-12.5zM165 15h7.5V7.5H165V15zm17.5 2.5V15H180V7.5h2.5V5H195v2.5h2.5V15H195v2.5h-12.5zM185 15h7.5V7.5H185V15zm17.5 2.5V15h5V2.5H205V0h7.5v15h5v2.5h-15z" fill="#F9F9F9"/></g><defs><filter id="filter0_d_16_1028" x="0" y="0" width="219.5" height="20.5" filterUnits="userSpaceOnUse" color-interpolation-filters="sRGB"><feFlood flood-opacity="0" result="BackgroundImageFix"/><feColorMatrix in="SourceAlpha" values="0 0 0 0 0 0 0 0 0 0 0 0 0 0 0 0 0 0 127 0" result="hardAlpha"/><feOffset dx="2" dy="3"/><feComposite in2="hardAlpha" operator="out"/><feColorMatrix values="0 0 0 0 0.0156863 0 0 0 0 1 0 0 0 0 0.529412 0 0 0 1 0"/><feBlend in2="BackgroundImageFix" result="effect1_dropShadow_16_1028"/><feBlend in="SourceGraphic" in2="effect1_dropShadow_16_1028" result="shape"/></filter></defs></svg>