<svg width="18" height="20" fill="none" xmlns="http://www.w3.org/2000/svg"><path d="M9 12a.965.965 0 01-.712-.288A.965.965 0 018 11c0-.283.096-.521.288-.713A.967.967 0 019 10a.97.97 0 01.713.287A.97.97 0 0110 11a.97.97 0 01-.287.712A.968.968 0 019 12zm-4 0a.968.968 0 01-.713-.288A.967.967 0 014 11a.97.97 0 01.287-.713A.97.97 0 015 10a.97.97 0 01.713.287A.97.97 0 016 11a.97.97 0 01-.287.712A.968.968 0 015 12zm8 0a.965.965 0 01-.712-.288A.965.965 0 0112 11c0-.283.096-.521.288-.713A.967.967 0 0113 10a.97.97 0 01.712.287c.192.192.288.43.288.713s-.096.52-.288.712A.965.965 0 0113 12zm-4 4a.965.965 0 01-.712-.288A.965.965 0 018 15c0-.283.096-.52.288-.712A.965.965 0 019 14c.283 0 .521.096.713.288A.967.967 0 0110 15a.97.97 0 01-.287.712A.968.968 0 019 16zm-4 0a.968.968 0 01-.713-.288A.967.967 0 014 15a.97.97 0 01.287-.712A.968.968 0 015 14c.283 0 .521.096.713.288A.967.967 0 016 15a.97.97 0 01-.287.712A.968.968 0 015 16zm8 0a.965.965 0 01-.712-.288A.965.965 0 0112 15c0-.283.096-.52.288-.712A.965.965 0 0113 14c.283 0 .52.096.712.288A.965.965 0 0114 15c0 .283-.096.52-.288.712A.965.965 0 0113 16zM2 20a1.93 1.93 0 01-1.413-.587A1.928 1.928 0 010 18V4c0-.55.196-1.02.587-1.412A1.927 1.927 0 012 2h1V1a.97.97 0 01.287-.713A.97.97 0 014 0a.97.97 0 01.713.287A.97.97 0 015 1v1h8V1c0-.283.096-.521.288-.713A.967.967 0 0114 0a.97.97 0 01.712.287c.192.192.288.43.288.713v1h1c.55 0 1.021.196 1.413.588.391.391.587.862.587 1.412v14a1.93 1.93 0 01-.587 1.413A1.928 1.928 0 0116 20H2zm0-2h14V8H2v10zM2 6h14V4H2v2z" fill="#04FF87"/></svg>