<?xml version="1.0" encoding="utf-8"?><svg viewBox="0 0 220 189" xmlns="http://www.w3.org/2000/svg" xmlns:xlink="http://www.w3.org/1999/xlink"><style>:root>svg{display:none}:root>svg:target{display:block}</style><svg fill="none" viewBox="0 0 100 35" id="1" xmlns="http://www.w3.org/2000/svg"><g clip-path="url(#aa)" fill="#010E08"><path d="M0 21.369c0 8.406 5.712 13.63 12.939 13.63 2.54 0 5.08-.624 6.932-2.037v-6.568a9.009 9.009 0 0 1-6.104 2.356c-3.755 0-6.749-2.738-6.749-7.363s2.982-7.312 6.749-7.312a8.801 8.801 0 0 1 6.135 2.337v-6.58c-1.84-1.445-4.393-1.995-6.933-1.995C5.712 7.837 0 13.062 0 21.37zM34.597 7.837c-7.362 0-12.503 5.575-12.503 13.532 0 7.956 5.129 13.63 12.503 13.63 7.374 0 12.546-5.624 12.546-13.63 0-8.007-5.123-13.532-12.546-13.532zm0 21.044c-3.516 0-5.473-3.125-5.473-7.5s1.957-7.462 5.473-7.462c3.515 0 5.466 3.125 5.466 7.462 0 4.338-1.902 7.5-5.466 7.5zm32.685-18.306a8.879 8.879 0 0 0-2.949-2.041 8.744 8.744 0 0 0-3.498-.697c-7.424 0-11.62 6.12-11.62 13.532 0 7.5 4.196 13.631 11.62 13.631a8.944 8.944 0 0 0 3.492-.712 9.075 9.075 0 0 0 2.955-2.025v2.143h7.08V0h-7.08v10.575zm0 15.125a5.48 5.48 0 0 1-2.006 2.183 5.347 5.347 0 0 1-2.828.798c-3.859 0-6.135-3.125-6.135-7.312 0-4.188 2.294-7.263 6.135-7.263a5.356 5.356 0 0 1 2.838.824 5.494 5.494 0 0 1 1.996 2.214V25.7zM88.529 7.837c-3.417 0-6.687.95-8.546 2.144v6.25a12.589 12.589 0 0 1 6.981-2.144c3.614 0 5.718 1.594 5.718 4.132v1.443c-1.03-.75-3.521-1.543-5.718-1.543-5.613 0-9.858 3.38-9.858 8.356 0 5.375 4.245 8.406 9.423 8.406 2.779 0 5.319-.994 6.135-1.837v1.393h6.834v-16.65c.018-6.318-3.988-9.95-10.97-9.95zm4.153 19.5c-.613 1.394-2.49 2.244-4.497 2.244-2.245 0-4.54-.95-4.54-3.187 0-2.238 2.295-3.182 4.54-3.182 2.006 0 3.86.844 4.497 2.238v1.887z"/></g><defs><clipPath id="aa"><path fill="#fff" d="M0 0h100v35H0z"/></clipPath></defs></svg><svg fill="none" viewBox="0 0 100 25" id="2" xmlns="http://www.w3.org/2000/svg"><path d="M67.067 5.166c-1.73 0-3.063.601-4.3 1.855V5.46H59.37v15.375h3.654v-8.918c0-2.041 1.247-3.332 3.139-3.332.343 0 .645.041.86.082l2.535-3.25c-.988-.166-1.848-.25-2.493-.25zm31.51.293h-4.213l-3.89 5.014-3.89-5.015H82.37l5.944 7.748-5.944 7.628h4.3l3.782-4.864 3.783 4.864h4.342l-5.984-7.616 5.984-7.76zM21.842 2c-1.246 1.625-1.548 2.166-2.751 2.166H1.12V25h7.05c1.591 0 3.138-.75 4.127-2 1.29-1.666 1.462-2.166 2.709-2.166h18.012V0h-7.093c-1.59 0-3.138.75-4.084 2zm5.588 13.459h-7.523c-1.634 0-3.138.666-4.126 1.957-1.29 1.668-1.549 2.168-2.752 2.168H6.667v-10h7.523a5.25 5.25 0 0 0 4.127-2c1.29-1.625 1.634-2.125 2.794-2.125h6.32v10zm26.997-5.125c1.592-.875 2.709-2.418 2.709-4.459 0-3-2.364-5.875-5.803-5.875H41.015v20.834h10.318c3.74 0 6.319-2.584 6.319-5.834 0-1.916-.903-3.584-3.225-4.666zM44.67 3.25h6.362c1.59 0 2.536 1.459 2.536 2.75 0 1.584-1.418 2.666-2.75 2.666H44.67V3.25zm6.148 14.334H44.67v-5.668h6.362c1.634 0 2.967 1.375 2.967 2.793 0 1.582-1.676 2.875-3.181 2.875z" fill="#010E08"/><path d="M78.716 16.416c-.602.917-1.763 1.459-3.053 1.459-2.02 0-3.697-1.334-3.697-3.375h10.92c.172-.625.214-.917.214-1.459 0-4.666-2.966-7.875-7.436-7.875-4.386 0-7.48 3.042-7.48 8 0 4.834 2.965 7.959 7.565 7.959 3.225 0 6.062-1.542 6.879-4.709h-3.912zm-3.053-8c2.02 0 3.569 1.25 3.526 3.125h-7.18c0-1.833 1.635-3.125 3.654-3.125z" fill="#010E08"/></svg><svg fill="none" viewBox="0 0 100 35" id="3" xmlns="http://www.w3.org/2000/svg"><path fill-rule="evenodd" clip-rule="evenodd" d="M7.01 0C3.14 0 0 2.472 0 5.52v18.126c0 3.049 3.139 5.52 7.01 5.52h23.016c3.872 0 7.011-2.471 7.011-5.52V5.52c0-3.05-3.139-5.521-7.01-5.521H7.01zm16.535 3.125h4.762c2.776 0 5.026 1.772 5.026 3.958v15c0 2.186-2.25 3.959-5.026 3.959h-4.762c-2.776 0-5.027-1.773-5.027-3.959v-15c0-2.186 2.25-3.958 5.027-3.958z" fill="#010E08"/><path d="M50.488 27.242v-9.57h12.264V13.83H50.488V7.116h13.428v-3.93h-19.47v24.056h6.042zm16.438 0h5.886V8.543h-5.886v18.699zm-.403-23.334c0 .717.329 1.304.985 1.762.657.447 1.44.67 2.35.67.925 0 1.708-.223 2.35-.67.656-.458.985-1.045.985-1.762 0-.728-.329-1.316-.985-1.762-.642-.459-1.425-.688-2.35-.688-.91 0-1.693.23-2.35.688-.656.446-.985 1.034-.985 1.762zm21.073 26.771c-.865 0-1.626-.1-2.283-.3-.656-.188-1.193-.458-1.611-.81-.418-.341-.694-.729-.828-1.164h-5.707c.12 1.046.56 1.998 1.32 2.855.762.858 1.888 1.54 3.38 2.045 1.492.517 3.372.775 5.64.775 1.342 0 2.663-.13 3.96-.388 1.314-.246 2.5-.652 3.559-1.216 1.06-.564 1.91-1.298 2.551-2.203.642-.893.963-1.98.963-3.26V8.543h-5.82v2.75h-.245c-.314-.564-.799-1.07-1.455-1.516-.641-.458-1.417-.817-2.328-1.075-.895-.27-1.887-.406-2.976-.406-1.805 0-3.387.335-4.744 1.005a7.384 7.384 0 0 0-3.178 2.96c-.761 1.293-1.142 2.885-1.142 4.777V18.2c0 1.915.38 3.525 1.142 4.829a7.385 7.385 0 0 0 3.178 2.96c1.357.67 2.939 1.005 4.744 1.005.82 0 1.589-.076 2.305-.229a8.617 8.617 0 0 0 1.947-.634 6.186 6.186 0 0 0 1.477-.934c.418-.364.739-.746.963-1.146h.246v2.661c0 1.258-.448 2.233-1.343 2.926-.895.693-2.134 1.04-3.715 1.04zm.134-18.682c1 0 1.865.206 2.596.617a4.225 4.225 0 0 1 1.701 1.78c.418.776.627 1.71.627 2.803v1.092c0 1.105-.202 2.044-.604 2.82a4.054 4.054 0 0 1-1.701 1.78c-.731.411-1.604.617-2.619.617-1.044 0-1.947-.2-2.708-.6a4.188 4.188 0 0 1-1.723-1.78c-.403-.787-.604-1.732-.604-2.837v-1.093c0-1.128.201-2.073.604-2.837a4.082 4.082 0 0 1 1.723-1.762c.761-.4 1.664-.6 2.708-.6z" fill="#010E08"/></svg><svg fill="none" viewBox="0 0 110 35" id="4" xmlns="http://www.w3.org/2000/svg"><g clip-path="url(#da)" fill-rule="evenodd" clip-rule="evenodd" fill="#010E08"><path d="M57.211 25.827a5.838 5.838 0 0 0 3.089-.681c.965-.51 1.806-1.284 2.45-2.25l-2.073-2.217a4.114 4.114 0 0 1-1.44 1.471 3.502 3.502 0 0 1-1.885.498c-2.597 0-4.362-2.275-4.362-5.498 0-3.208 1.765-5.454 4.362-5.454a3.446 3.446 0 0 1 1.877.458 4.04 4.04 0 0 1 1.448 1.438l2.072-2.144c-.64-.97-1.48-1.744-2.447-2.253a5.765 5.765 0 0 0-3.091-.664c-4.374 0-7.457 3.646-7.457 8.62 0 4.987 3.07 8.676 7.457 8.676zm11.051-.408v-11.23c.64-1.195 2.392-2.216 3.748-2.216.383 0 .69.03.96.102V8.517a5.68 5.68 0 0 0-2.627.803 6.557 6.557 0 0 0-2.081 1.997V8.925h-3.146V25.42h3.146zm8.416-18.506c.516 0 1.01-.234 1.375-.65.365-.415.57-.98.57-1.567 0-.588-.205-1.152-.57-1.568-.364-.415-.859-.649-1.375-.649-.515 0-1.01.234-1.374.65-.365.415-.57.979-.57 1.567s.205 1.152.57 1.567c.364.416.859.65 1.374.65zm1.56 18.52V8.91H75.08v16.494l3.16.03zm8.635.394c3.888 0 6.011-2.217 6.011-5.148 0-6.562-8.749-4.375-8.749-7.291 0-1.152 1.024-2.042 2.674-2.042 1.829 0 3.415.89 4.285 1.983l1.317-2.523c-1.553-1.53-3.55-2.346-5.602-2.29-3.659 0-5.692 2.29-5.692 4.988 0 6.344 8.749 4.025 8.749 7.277 0 1.298-.998 2.188-2.878 2.188-1.82-.054-3.56-.869-4.886-2.29l-1.433 2.552c1.692 1.755 3.918 2.687 6.204 2.596zm16.525 0c-1.829 0-3.44-.948-4.643-2.698v8.575h-3.134V8.925h3.134v2.26a6.036 6.036 0 0 1 2.043-1.964 5.198 5.198 0 0 1 2.6-.704c3.748 0 6.408 3.208 6.408 8.633 0 5.44-2.66 8.677-6.395 8.677h-.013zm-.921-3.179c2.482 0 4.093-2.275 4.093-5.498 0-3.208-1.611-5.454-4.093-5.454-1.471 0-2.993.948-3.71 2.187v6.52a4.97 4.97 0 0 0 1.624 1.618 4.28 4.28 0 0 0 2.086.627zM14.8 27.694l5.922 7.175 4.63-8.517 12.279-1.531L35.648.233.18 4.696l1.995 24.587 12.625-1.59z"/></g><defs><clipPath id="da"><path fill="#fff" d="M0 0h110v35H0z"/></clipPath></defs></svg><svg fill="none" viewBox="0 0 100 21" id="5" xmlns="http://www.w3.org/2000/svg"><g clip-path="url(#ea)"><path d="M20.142 6.084c-3.625 0-6.458 3.087-6.458 7.22 0 4.134 2.76 7.195 6.458 7.195 3.697 0 6.506-3.114 6.506-7.22 0-4.081-2.761-7.195-6.506-7.195zm.024 11.436c-2.064 0-3.577-1.799-3.577-4.214 0-2.444 1.488-4.242 3.553-4.242 2.089 0 3.6 1.826 3.6 4.242 0 2.415-1.511 4.214-3.576 4.214zm7.274-8.295h1.8v11.007h2.881V6.352H27.44v2.873zM6.434 9.063c1.513 0 2.713 1.047 3.169 2.604h3.049C12.099 8.34 9.65 6.084 6.458 6.084 2.833 6.084 0 9.17 0 13.306 0 17.44 2.761 20.5 6.458 20.5c3.121 0 5.618-2.255 6.17-5.611H9.603C9.17 16.446 7.97 17.52 6.457 17.52c-2.089 0-3.553-1.799-3.553-4.214.001-2.444 1.442-4.243 3.53-4.243zm75.742 2.9-2.112-.349c-1.008-.16-1.729-.536-1.729-1.422 0-.967.937-1.45 2.209-1.45 1.392 0 2.281.671 2.473 1.772h2.785c-.313-2.792-2.233-4.43-5.186-4.43-3.049 0-5.065 1.746-5.065 4.215 0 2.362 1.32 3.732 3.985 4.161l2.112.349c1.033.16 1.61.618 1.61 1.476 0 1.101-1.009 1.557-2.401 1.557-1.706 0-2.666-.778-2.81-1.96h-2.832c.264 2.712 2.16 4.618 5.617 4.618 3.145 0 5.234-1.61 5.234-4.376 0-2.47-1.513-3.759-3.89-4.161zM30.681.634c-1.056 0-1.849.859-1.849 2.04 0 1.18.792 2.04 1.85 2.04 1.055 0 1.848-.86 1.848-2.04 0-1.181-.793-2.04-1.849-2.04zm42.277 10.47c0-3.006-1.632-5.02-5.09-5.02-3.264 0-5.089 1.853-5.45 4.699h2.858c.144-1.1.912-2.013 2.545-2.013 1.465 0 2.185.724 2.185 1.61 0 1.155-1.321 1.45-2.954 1.638-2.208.268-4.945 1.127-4.945 4.349 0 2.497 1.657 4.107 4.298 4.107 2.064 0 3.36-.967 4.01-2.497.095 1.369 1.008 2.255 2.28 2.255h1.68V17.36H72.96v-6.256h-.001zm-2.833 3.49c0 1.853-1.44 3.222-3.193 3.222-1.08 0-1.993-.51-1.993-1.583 0-1.37 1.465-1.745 2.81-1.906 1.296-.134 2.016-.456 2.376-1.074v1.341zm-15.292-8.51c-1.61 0-2.954.752-3.914 2.013V.5h-2.88v19.732h2.832v-1.826c.96 1.316 2.33 2.094 3.962 2.094 3.456 0 6.074-3.06 6.074-7.194 0-4.135-2.665-7.222-6.074-7.222zM54.4 17.52c-2.065 0-3.578-1.799-3.578-4.214 0-2.416 1.537-4.242 3.601-4.242 2.09 0 3.553 1.8 3.553 4.242 0 2.415-1.512 4.214-3.576 4.214zM41.148 6.084c-1.873 0-3.097.858-3.817 2.067v-1.8h-2.858v13.88h2.881v-7.543c0-2.121 1.2-3.625 2.977-3.625 1.657 0 2.688 1.316 2.688 3.222v7.947H45.9v-8.188c.001-3.49-1.607-5.96-4.752-5.96zm58.65 6.765c0-3.973-2.593-6.764-6.074-6.764-3.697 0-6.41 3.114-6.41 7.22 0 4.323 2.905 7.195 6.458 7.195 3.001 0 5.354-1.987 5.954-4.805h-3.002c-.432 1.235-1.488 1.933-2.905 1.933-1.849 0-3.241-1.289-3.553-3.544h9.531v-1.235h.001zm-9.364-1.074c.457-1.933 1.754-2.872 3.242-2.872 1.632 0 2.88 1.047 3.169 2.872h-6.41z" fill="#010E08"/></g><defs><clipPath id="ea"><path fill="#fff" transform="translate(0 .5)" d="M0 0h100v20H0z"/></clipPath></defs></svg><svg fill="none" viewBox="0 0 14 8" id="arrow" xmlns="http://www.w3.org/2000/svg"><path fill-rule="evenodd" clip-rule="evenodd" d="M.293.293a1 1 0 0 1 1.414 0L7 5.586 12.293.293a1 1 0 1 1 1.414 1.414l-6 6a1 1 0 0 1-1.414 0l-6-6a1 1 0 0 1 0-1.414z" fill="#F9F9F9"/></svg><svg fill="none" viewBox="0 0 18 18" id="close__popup" xmlns="http://www.w3.org/2000/svg"><path fill-rule="evenodd" clip-rule="evenodd" d="M.293.293a1 1 0 0 1 1.414 0L9 7.586 16.293.293a1 1 0 1 1 1.414 1.414L10.414 9l7.293 7.293a1 1 0 0 1-1.414 1.414L9 10.414l-7.293 7.293a1 1 0 0 1-1.414-1.414L7.586 9 .293 1.707a1 1 0 0 1 0-1.414z" fill="#010E08"/></svg><svg fill="none" viewBox="0 0 220 21" id="footer_logo" xmlns="http://www.w3.org/2000/svg"><g filter="url(#ha)"><path d="M0 17.5V0h17.5v2.5H5v5h10V10H5v7.5H0zm27.5-10H30V10h-2.5v7.5h-5V5h5v2.5zm10-2.5v2.5H30V5h7.5zm5 12.5V15H40V7.5h2.5V5H55v2.5h2.5V15H55v2.5H42.5zM45 15h7.5V7.5H45V15zm15 2.5V5h15v2.5h2.5v10h-5v-10H65v10h-5zm27.5 0v-10h-5V5h5V0h5v5h5v2.5h-5v10h-5zm15 0V15H100v-2.5h5V15h7.5v-5h-10V7.5H100v-5h2.5V0H115v2.5h2.5V5h-5V2.5H105v5h10V10h2.5v5H115v2.5h-12.5zm20 0V15H120V7.5h2.5V5h15v2.5H125V15h12.5v2.5h-15zm17.5 0V0h5v5h10v2.5h2.5v10h-5v-10H145v10h-5zm22.5 0V15H160V7.5h2.5V5H175v2.5h2.5V15H175v2.5h-12.5zM165 15h7.5V7.5H165V15zm17.5 2.5V15H180V7.5h2.5V5H195v2.5h2.5V15H195v2.5h-12.5zM185 15h7.5V7.5H185V15zm17.5 2.5V15h5V2.5H205V0h7.5v15h5v2.5h-15z" fill="#F9F9F9"/></g><defs><filter id="ha" x="0" y="0" width="219.5" height="20.5" filterUnits="userSpaceOnUse" color-interpolation-filters="sRGB"><feFlood flood-opacity="0" result="BackgroundImageFix"/><feColorMatrix in="SourceAlpha" values="0 0 0 0 0 0 0 0 0 0 0 0 0 0 0 0 0 0 127 0" result="hardAlpha"/><feOffset dx="2" dy="3"/><feComposite in2="hardAlpha" operator="out"/><feColorMatrix values="0 0 0 0 0.0156863 0 0 0 0 1 0 0 0 0 0.529412 0 0 0 1 0"/><feBlend in2="BackgroundImageFix" result="effect1_dropShadow_16_1028"/><feBlend in="SourceGraphic" in2="effect1_dropShadow_16_1028" result="shape"/></filter></defs></svg><svg fill="none" viewBox="0 0 18 20" id="header_calendar" xmlns="http://www.w3.org/2000/svg"><path d="M9 12a.965.965 0 0 1-.712-.288A.965.965 0 0 1 8 11c0-.283.096-.521.288-.713A.967.967 0 0 1 9 10a.97.97 0 0 1 .713.287A.97.97 0 0 1 10 11a.97.97 0 0 1-.287.712A.968.968 0 0 1 9 12zm-4 0a.968.968 0 0 1-.713-.288A.967.967 0 0 1 4 11a.97.97 0 0 1 .287-.713A.97.97 0 0 1 5 10a.97.97 0 0 1 .713.287A.97.97 0 0 1 6 11a.97.97 0 0 1-.287.712A.968.968 0 0 1 5 12zm8 0a.965.965 0 0 1-.712-.288A.965.965 0 0 1 12 11c0-.283.096-.521.288-.713A.967.967 0 0 1 13 10a.97.97 0 0 1 .712.287c.192.192.288.43.288.713s-.096.52-.288.712A.965.965 0 0 1 13 12zm-4 4a.965.965 0 0 1-.712-.288A.965.965 0 0 1 8 15c0-.283.096-.52.288-.712A.965.965 0 0 1 9 14c.283 0 .521.096.713.288A.967.967 0 0 1 10 15a.97.97 0 0 1-.287.712A.968.968 0 0 1 9 16zm-4 0a.968.968 0 0 1-.713-.288A.967.967 0 0 1 4 15a.97.97 0 0 1 .287-.712A.968.968 0 0 1 5 14c.283 0 .521.096.713.288A.967.967 0 0 1 6 15a.97.97 0 0 1-.287.712A.968.968 0 0 1 5 16zm8 0a.965.965 0 0 1-.712-.288A.965.965 0 0 1 12 15c0-.283.096-.52.288-.712A.965.965 0 0 1 13 14c.283 0 .52.096.712.288A.965.965 0 0 1 14 15c0 .283-.096.52-.288.712A.965.965 0 0 1 13 16zM2 20a1.93 1.93 0 0 1-1.413-.587A1.928 1.928 0 0 1 0 18V4c0-.55.196-1.02.587-1.412A1.927 1.927 0 0 1 2 2h1V1a.97.97 0 0 1 .287-.713A.97.97 0 0 1 4 0a.97.97 0 0 1 .713.287A.97.97 0 0 1 5 1v1h8V1c0-.283.096-.521.288-.713A.967.967 0 0 1 14 0a.97.97 0 0 1 .712.287c.192.192.288.43.288.713v1h1c.55 0 1.021.196 1.413.588.391.391.587.862.587 1.412v14a1.93 1.93 0 0 1-.587 1.413A1.928 1.928 0 0 1 16 20H2zm0-2h14V8H2v10zM2 6h14V4H2v2z" fill="#04FF87"/></svg><svg fill="none" viewBox="0 0 20 20" id="header_online" xmlns="http://www.w3.org/2000/svg"><path d="M14.36 12c.08-.66.14-1.32.14-2 0-.68-.06-1.34-.14-2h3.38c.16.64.26 1.31.26 2s-.1 1.36-.26 2m-5.15 5.56c.6-1.11 1.06-2.31 1.38-3.56h2.95a8.03 8.03 0 0 1-4.33 3.56zM12.34 12H7.66c-.1-.66-.16-1.32-.16-2 0-.68.06-1.35.16-2h4.68c.09.65.16 1.32.16 2 0 .68-.07 1.34-.16 2zM10 17.96c-.83-1.2-1.5-2.53-1.91-3.96h3.82c-.41 1.43-1.08 2.76-1.91 3.96zM6 6H3.08A7.923 7.923 0 0 1 7.4 2.44C6.8 3.55 6.35 4.75 6 6zm-2.92 8H6c.35 1.25.8 2.45 1.4 3.56A8.008 8.008 0 0 1 3.08 14zm-.82-2C2.1 11.36 2 10.69 2 10s.1-1.36.26-2h3.38c-.08.66-.14 1.32-.14 2 0 .68.06 1.34.14 2M10 2.03c.83 1.2 1.5 2.54 1.91 3.97H8.09C8.5 4.57 9.17 3.23 10 2.03zM16.92 6h-2.95a15.65 15.65 0 0 0-1.38-3.56c1.84.63 3.37 1.9 4.33 3.56zM10 0C4.47 0 0 4.5 0 10A10 10 0 1 0 10 0z" fill="#04FF87"/></svg><svg fill="none" viewBox="0 0 20 20" id="header_time" xmlns="http://www.w3.org/2000/svg"><path d="M10 18a8 8 0 1 0 0-16.001A8 8 0 0 0 10 18zm0-18a10 10 0 1 1 0 20C4.47 20 0 15.5 0 10A10 10 0 0 1 10 0zm.5 5v5.25l4.5 2.67-.75 1.23L9 11V5h1.5z" fill="#04FF87"/></svg><svg fill="none" viewBox="0 0 20 20" id="instagram" xmlns="http://www.w3.org/2000/svg"><path d="M20 5.8v8.4c0 3.2-2.6 5.8-5.8 5.8H5.8A5.8 5.8 0 0 1 0 14.2V5.8C0 2.6 2.6 0 5.8 0h8.4A5.8 5.8 0 0 1 20 5.8zm-2-.2A3.6 3.6 0 0 0 14.4 2H5.6C3.61 2 2 3.61 2 5.6v8.8A3.6 3.6 0 0 0 5.6 18h8.8c1.99 0 3.6-1.61 3.6-3.6V5.6zm-1.5 9.65a1.25 1.25 0 1 1-2.5 0 1.25 1.25 0 0 1 2.5 0zM15 10a5 5 0 1 1-10 0 5 5 0 0 1 10 0zm-2 0a3 3 0 1 0-6 0 3 3 0 0 0 6 0z" fill="#04FF87"/></svg><svg fill="none" viewBox="0 0 189 189" id="success" xmlns="http://www.w3.org/2000/svg"><path d="M94.5.75C42.937.75.75 42.938.75 94.5s42.188 93.75 93.75 93.75 93.75-42.188 93.75-93.75C188.25 42.937 146.062.75 94.5.75zm0 168.75c-41.344 0-75-33.656-75-75s33.656-75 75-75 75 33.656 75 75-33.656 75-75 75zm43.031-116.438L75.75 114.844 51.469 90.656 38.25 103.875l37.5 37.5 75-75-13.219-13.313z" fill="#010E08"/></svg><svg fill="none" viewBox="0 0 20 18" id="telegram" xmlns="http://www.w3.org/2000/svg"><path fill-rule="evenodd" clip-rule="evenodd" d="M19.661.25a1 1 0 0 1 .31.993l-4 16a1 1 0 0 1-1.678.464l-4.185-4.185L7.8 16.6a1 1 0 0 1-1.749-.284L4.182 10.71.552 8.894a1 1 0 0 1 .086-1.826l18-7A1 1 0 0 1 19.66.25zM10.72 11.305a.963.963 0 0 0-.022-.022L10.414 11l3.293-3.293a1 1 0 0 0-1.414-1.414l-4 4a1 1 0 0 0 0 1.414l.387.387-1.335 1.78-1.396-4.19a1 1 0 0 0-.502-.578l-1.982-.992L17.56 2.633l-3.103 12.411-3.739-3.739z" fill="#04FF87"/></svg><svg fill="none" viewBox="0 0 20 20" id="watsapp" xmlns="http://www.w3.org/2000/svg"><path d="M17.05 2.91A9.816 9.816 0 0 0 10.04 0C4.58 0 .13 4.45.13 9.91c0 1.75.46 3.45 1.32 4.95L.05 20l5.25-1.38c1.45.79 3.08 1.21 4.74 1.21 5.46 0 9.91-4.45 9.91-9.91 0-2.65-1.03-5.14-2.9-7.01zm-7.01 15.24c-1.48 0-2.93-.4-4.2-1.15l-.3-.18-3.12.82.83-3.04-.2-.31a8.264 8.264 0 0 1-1.26-4.38c0-4.54 3.7-8.24 8.24-8.24 2.2 0 4.27.86 5.82 2.42a8.183 8.183 0 0 1 2.41 5.83c.02 4.54-3.68 8.23-8.22 8.23zm4.52-6.16c-.25-.12-1.47-.72-1.69-.81-.23-.08-.39-.12-.56.12-.17.25-.64.81-.78.97-.14.17-.29.19-.54.06-.25-.12-1.05-.39-1.99-1.23-.74-.66-1.23-1.47-1.38-1.72-.14-.25-.02-.38.11-.51.11-.11.25-.29.37-.43s.17-.25.25-.41c.08-.17.04-.31-.02-.43s-.56-1.34-.76-1.84c-.2-.48-.41-.42-.56-.43h-.48c-.17 0-.43.06-.66.31-.22.25-.86.85-.86 2.07 0 1.22.89 2.4 1.01 2.56.12.17 1.75 2.67 4.23 3.74.59.26 1.05.41 1.41.52.59.19 1.13.16 1.56.1.48-.07 1.47-.6 1.67-1.18.21-.58.21-1.07.14-1.18-.07-.11-.22-.16-.47-.28z" fill="#04FF87"/></svg></svg>