<svg width="20" height="18" fill="none" xmlns="http://www.w3.org/2000/svg"><path fill-rule="evenodd" clip-rule="evenodd" d="M19.661.25a1 1 0 01.31.993l-4 16a1 1 0 01-1.678.464l-4.185-4.185L7.8 16.6a1 1 0 01-1.749-.284L4.182 10.71.552 8.894a1 1 0 01.086-1.826l18-7A1 1 0 0119.66.25zM10.72 11.305a.963.963 0 00-.022-.022L10.414 11l3.293-3.293a1 1 0 00-1.414-1.414l-4 4a1 1 0 000 1.414l.387.387-1.335 1.78-1.396-4.19a1 1 0 00-.502-.578l-1.982-.992L17.56 2.633l-3.103 12.411-3.739-3.739z" fill="#04FF87"/></svg>